<svg xmlns="http://www.w3.org/2000/svg" width="18" height="18" viewBox="0 0 18 18"><g><g><path fill="#c40b0b" d="M4.5 0c.55 0 1 .45 1 1 0 1.25.2 2.45.57 3.57.11.35.03.74-.25 1.02l-2.2 2.2c1.44 2.83 3.76 5.14 6.59 6.59l2.2-2.2c.2-.19.45-.29.71-.29.1 0 .21.01.31.05 1.12.37 2.33.57 3.57.57.55 0 1 .45 1 1V17c0 .55-.45 1-1 1C7.61 18 0 10.39 0 1c0-.55.45-1 1-1zM2.03 2c.09 1.32.35 2.59.76 3.79l1.2-1.2c-.24-.83-.39-1.7-.45-2.59zM12.2 15.21c1.21.4 2.48.66 3.8.75v-1.49c-.88-.06-1.75-.21-2.6-.45z"/></g></g></svg>