<svg xmlns="http://www.w3.org/2000/svg" width="40" height="41" viewBox="0 0 40 41"><g><g><path fill="#c40b0b" d="M38.101 12.383a20.797 20.797 0 0 1 1.641 8.133c-.004 5.426-2.092 10.63-5.808 14.47-3.715 3.84-8.754 6.002-14.012 6.014a19.089 19.089 0 0 1-7.428-1.512 19.036 19.036 0 0 1-4.687-2.766 20.292 20.292 0 0 1-5.404-6.506 20.94 20.94 0 0 1-2.347-8.22 21.058 21.058 0 0 1 1.122-8.489 20.563 20.563 0 0 1 4.393-7.27 19.796 19.796 0 0 1 6.894-4.776A19.273 19.273 0 0 1 20.65.018c2.796.12 5.536.851 8.039 2.143a19.945 19.945 0 0 1 6.483 5.354 20.145 20.145 0 0 1 2.93 4.868zm-18.18-8.24a15.438 15.438 0 0 0-7.633 2.02 16.037 16.037 0 0 0-5.743 5.57 16.689 16.689 0 0 0-2.427 7.737 16.778 16.778 0 0 0 1.491 7.985 4.464 4.464 0 0 0 1.157-2.63 8.767 8.767 0 0 1 2.372-4.885 8.302 8.302 0 0 1 4.733-2.448 4.336 4.336 0 0 0 2.676-1.274 4.592 4.592 0 0 0 1.294-2.732 8.767 8.767 0 0 1 2.372-4.884 8.302 8.302 0 0 1 4.733-2.447 6.28 6.28 0 0 0 1.582-.47 15.284 15.284 0 0 0-6.621-1.51zM11.778 34.56a4.845 4.845 0 0 0 .717-2.071 8.81 8.81 0 0 1 2.397-4.888 8.343 8.343 0 0 1 4.752-2.444 4.34 4.34 0 0 0 2.67-1.3 4.596 4.596 0 0 0 1.27-2.751 8.737 8.737 0 0 1 2.368-4.89 8.272 8.272 0 0 1 4.738-2.442 4.155 4.155 0 0 0 2.651-1.33c.071-.064.135-.135.19-.212a15.77 15.77 0 0 0-3.457-4.203 7.928 7.928 0 0 1-4.394 2.162 4.148 4.148 0 0 0-2.681 1.255 4.477 4.477 0 0 0-1.275 2.887 8.767 8.767 0 0 1-2.372 4.884 8.301 8.301 0 0 1-4.733 2.448 4.095 4.095 0 0 0-2.651 1.3 4.472 4.472 0 0 0-1.275 2.751A8.383 8.383 0 0 1 8.32 30.6c-.176.182-.351.333-.527.5a16.086 16.086 0 0 0 3.984 3.461zm8.13 2.298c2.42-.01 4.807-.592 6.977-1.701a15.969 15.969 0 0 0 5.537-4.699 16.607 16.607 0 0 0 2.964-6.735c.477-2.45.404-4.979-.213-7.394a8.216 8.216 0 0 1-3.75 1.511 4.341 4.341 0 0 0-2.662 1.305 4.597 4.597 0 0 0-1.265 2.747 8.766 8.766 0 0 1-2.378 4.888 8.3 8.3 0 0 1-4.741 2.444 4.34 4.34 0 0 0-2.662 1.305 4.596 4.596 0 0 0-1.264 2.746 8.938 8.938 0 0 1-.938 3.024 15.42 15.42 0 0 0 4.395.634z"/></g></g></svg>